<svg width="16" height="16" viewBox="0 0 16 16" fill="none" xmlns="http://www.w3.org/2000/svg">
<path d="M4.31781 2.68742C5.23441 2.27078 6.53579 2 8 2C9.46421 2 10.7656 2.27078 11.6822 2.68742C12.6439 3.12457 13 3.62628 13 4C13 4.37372 12.6439 4.87543 11.6822 5.31258C10.7656 5.72922 9.46421 6 8 6C6.53579 6 5.23441 5.72922 4.31781 5.31258C3.35608 4.87543 3 4.37372 3 4C3 3.62628 3.35608 3.12457 4.31781 2.68742ZM13 5.69813V7C13 7.37372 12.6439 7.87543 11.6822 8.31258C10.7656 8.72922 9.46421 9 8 9C6.53579 9 5.23441 8.72922 4.31781 8.31258C3.35608 7.87543 3 7.37372 3 7V5.69813C3.27105 5.90046 3.5799 6.07563 3.90401 6.22295C4.97802 6.71114 6.42664 7 8 7C9.57336 7 11.022 6.71114 12.096 6.22295C12.4201 6.07563 12.729 5.90046 13 5.69813ZM14 4C14 2.993 13.1249 2.24472 12.096 1.77705C11.022 1.28886 9.57336 1 8 1C6.42664 1 4.97802 1.28886 3.90401 1.77705C2.87513 2.24472 2 2.993 2 4V13C2 14.007 2.87513 14.7553 3.90401 15.2229C4.97802 15.7111 6.42664 16 8 16C9.57336 16 11.022 15.7111 12.096 15.2229C13.1249 14.7553 14 14.007 14 13V4ZM13 8.69813V10C13 10.3737 12.6439 10.8754 11.6822 11.3126C10.7656 11.7292 9.46421 12 8 12C6.53579 12 5.23441 11.7292 4.31781 11.3126C3.35608 10.8754 3 10.3737 3 10V8.69813C3.27105 8.90046 3.5799 9.07563 3.90401 9.22295C4.97802 9.71114 6.42664 10 8 10C9.57336 10 11.022 9.71114 12.096 9.22295C12.4201 9.07563 12.729 8.90046 13 8.69813ZM13 11.6981V13C13 13.3737 12.6439 13.8754 11.6822 14.3126C10.7656 14.7292 9.46421 15 8 15C6.53579 15 5.23441 14.7292 4.31781 14.3126C3.35608 13.8754 3 13.3737 3 13V11.6981C3.27105 11.9005 3.5799 12.0756 3.90401 12.2229C4.97802 12.7111 6.42664 13 8 13C9.57336 13 11.022 12.7111 12.096 12.2229C12.4201 12.0756 12.729 11.9005 13 11.6981Z" fill="white"/>
</svg>
