<svg width="24" height="24" viewBox="0 0 24 24" fill="none" xmlns="http://www.w3.org/2000/svg">
    <path
        d="M13.0607 2.25002C12.4749 1.66422 11.5251 1.66422 10.9393 2.25002L0.969671 12.2197C0.676776 12.5126 0.676776 12.9874 0.969671 13.2803C1.26256 13.5732 1.73744 13.5732 2.03033 13.2803L3 12.3107V20.2499C3 21.4927 4.00736 22.4999 5.25 22.4999H18.75C19.9926 22.4999 21 21.4927 21 20.2499V12.3107L21.9696 13.2803C22.2626 13.5732 22.7374 13.5732 23.0304 13.2803C23.3232 12.9874 23.3232 12.5126 23.0304 12.2197L19.5 8.68935V3.75002C19.5 3.33579 19.1642 3.00002 18.75 3.00002H17.25C16.8358 3.00002 16.5 3.33579 16.5 3.75002V5.68935L13.0607 2.25002ZM19.5 10.8107V20.2499C19.5 20.6642 19.1642 20.9999 18.75 20.9999H5.25C4.83579 20.9999 4.5 20.6642 4.5 20.2499V10.8107L12 3.31067L19.5 10.8107Z"
        fill="white" />
</svg>