<svg width="140" height="140" viewBox="0 0 140 140" fill="none" xmlns="http://www.w3.org/2000/svg">
        <path d="M60.0027 106.2H79.9973C80.8007 110.902 84.8819 114.5 89.787 114.5C95.2668 114.5 99.718 110.013 99.718 104.498C99.718 101.416 98.3229 98.6536 96.1349 96.8189L106.136 79.3756C107.205 79.7749 108.362 79.9939 109.569 79.9939C115.049 79.9939 119.5 75.5071 119.5 69.9983C119.5 64.4896 115.049 60.0028 109.569 60.0028C108.365 60.0028 107.208 60.2191 106.137 60.6181L96.138 43.1743C98.3229 41.3396 99.718 38.5773 99.718 35.4956C99.718 29.9868 95.2666 25.5 89.787 25.5C84.8817 25.5 80.8036 29.0947 80.0005 33.8003H60.0031C59.2027 29.0944 55.1212 25.5 50.2163 25.5C44.7367 25.5 40.2853 29.9868 40.2853 35.4956C40.2853 38.577 41.6771 41.3395 43.865 43.1745L33.8603 60.6179C32.791 60.2189 31.6348 60.0028 30.431 60.0028C24.9514 60.0028 20.5 64.4896 20.5 69.9983C20.5 75.5071 24.9514 79.9939 30.431 79.9939C31.6358 79.9939 32.7916 79.7748 33.8594 79.3805L43.8652 96.8258C41.6804 98.6601 40.2853 101.419 40.2853 104.504C40.2853 110.013 44.7367 114.5 50.2163 114.5C55.1216 114.5 59.1995 110.902 60.0027 106.2ZM83.2302 104.504C83.2302 100.86 86.1752 97.8994 89.787 97.8994C93.3987 97.8994 96.3437 100.86 96.3437 104.504C96.3437 108.149 93.3987 111.11 89.787 111.11C86.1752 111.11 83.2302 108.149 83.2302 104.504ZM43.6596 104.504C43.6596 100.86 46.6046 97.8994 50.2163 97.8994C53.8281 97.8994 56.7731 100.86 56.7731 104.504C56.7731 108.149 53.8281 111.11 50.2163 111.11C46.6046 111.11 43.6596 108.149 43.6596 104.504ZM83.4357 96.8224C81.6598 98.3127 80.4067 100.416 79.9975 102.806H60.003C59.5963 100.416 58.343 98.3123 56.5644 96.822L64.3788 83.1945H75.618L83.4357 96.8224ZM46.7846 95.1223L36.7791 77.6774C38.5579 76.1873 39.8113 74.0857 40.2179 71.6903H55.8392L61.4617 81.4959L53.6479 95.1224C51.492 94.3343 48.9383 94.3342 46.7846 95.1223ZM103.221 77.6808L93.2196 95.1239C92.1508 94.7245 90.9943 94.5055 89.787 94.5055C88.5802 94.5055 87.424 94.7243 86.3575 95.1236L78.5449 81.4993L84.1674 71.6936H99.7822C100.189 74.0864 101.442 76.1904 103.221 77.6808ZM81.2437 69.9983L75.6212 79.804H64.3821L58.7596 69.9983L64.3821 60.1927H75.6212L81.2437 69.9983ZM103.016 69.9983C103.016 66.3535 105.961 63.3933 109.572 63.3933C113.184 63.3933 116.129 66.3535 116.129 69.9983C116.129 73.6432 113.184 76.6034 109.572 76.6034C105.961 76.6034 103.016 73.6432 103.016 69.9983ZM23.8742 69.9983C23.8742 66.3535 26.8192 63.3933 30.431 63.3933C34.0428 63.3933 36.9878 66.3535 36.9878 69.9983C36.9878 73.6432 34.0428 76.6034 30.431 76.6034C26.8192 76.6034 23.8742 73.6432 23.8742 69.9983ZM99.7828 68.3031H84.1673L78.5417 58.4974L86.3552 44.8746C88.5066 45.6626 91.0626 45.6622 93.2185 44.8743L103.221 62.3195C101.445 63.8098 100.192 65.9134 99.7828 68.3031ZM55.8359 68.3031H40.2177C39.811 65.9131 38.5577 63.8095 36.7791 62.3192L46.7814 44.8744C48.9351 45.6625 51.4887 45.6623 53.6446 44.8742L61.4584 58.4975L55.8359 68.3031ZM83.439 43.1743L75.6213 56.8022H64.3822L56.5706 43.1741C58.3463 41.6817 59.5998 39.5804 60.0064 37.1875H80.0002C80.4069 39.5804 81.6605 41.6818 83.439 43.1743ZM83.2302 35.4956C83.2302 31.8507 86.1752 28.8905 89.787 28.8905C93.3987 28.8905 96.3437 31.8507 96.3437 35.4956C96.3437 39.1404 93.3987 42.1006 89.787 42.1006C86.1752 42.1006 83.2302 39.1404 83.2302 35.4956ZM43.6596 35.4956C43.6596 31.8507 46.6046 28.8905 50.2163 28.8905C53.8281 28.8905 56.7731 31.8507 56.7731 35.4956C56.7731 39.1404 53.8281 42.1006 50.2163 42.1006C46.6046 42.1006 43.6596 39.1404 43.6596 35.4956Z"
                fill="#CCA43B" stroke="#363636" />
</svg>