<svg width="24" height="24" viewBox="0 0 24 24" fill="none" xmlns="http://www.w3.org/2000/svg">
    <g clip-path="url(#clip0_161_108)">
        <path
            d="M16.5 9C16.5 11.4853 14.4853 13.5 12 13.5C9.51472 13.5 7.5 11.4853 7.5 9C7.5 6.51472 9.51472 4.5 12 4.5C14.4853 4.5 16.5 6.51472 16.5 9Z"
            fill="white" />
        <path fill-rule="evenodd" clip-rule="evenodd"
            d="M0 12C0 5.37258 5.37258 0 12 0C18.6275 0 24 5.37258 24 12C24 18.6275 18.6275 24 12 24C5.37258 24 0 18.6275 0 12ZM12 1.5C6.20101 1.5 1.5 6.20101 1.5 12C1.5 14.4801 2.35989 16.7595 3.79779 18.556C4.8644 16.8378 7.20696 15 12 15C16.7931 15 19.1356 16.8378 20.2021 18.556C21.64 16.7595 22.5 14.4801 22.5 12C22.5 6.20101 17.799 1.5 12 1.5Z"
            fill="white" />
    </g>
    <defs>
        <clipPath id="clip0_161_108">
            <rect width="24" height="24" fill="white" />
        </clipPath>
    </defs>
</svg>