<svg width="16" height="16" viewBox="0 0 16 16" fill="none" xmlns="http://www.w3.org/2000/svg">
<path d="M12.5 3C12.7761 3 13 3.22386 13 3.5C13 3.77614 12.7761 4 12.5 4H7.5C7.22386 4 7 3.77614 7 3.5C7 3.22386 7.22386 3 7.5 3H12.5Z" fill="white"/>
<path d="M12.5 6C12.7761 6 13 6.22386 13 6.5C13 6.77614 12.7761 7 12.5 7H7.5C7.22386 7 7 6.77614 7 6.5C7 6.22386 7.22386 6 7.5 6H12.5Z" fill="white"/>
<path d="M13 9.5C13 9.22386 12.7761 9 12.5 9H7.5C7.22386 9 7 9.22386 7 9.5C7 9.77614 7.22386 10 7.5 10H12.5C12.7761 10 13 9.77614 13 9.5Z" fill="white"/>
<path d="M12.5 12C12.7761 12 13 12.2239 13 12.5C13 12.7761 12.7761 13 12.5 13H7.5C7.22386 13 7 12.7761 7 12.5C7 12.2239 7.22386 12 7.5 12H12.5Z" fill="white"/>
<path d="M16 2C16 0.895431 15.1046 0 14 0H2C0.895431 0 0 0.895431 0 2V14C0 15.1046 0.895431 16 2 16H14C15.1046 16 16 15.1046 16 14V2ZM4 1V15H2C1.44772 15 1 14.5523 1 14V2C1 1.44772 1.44772 1 2 1H4ZM5 1H14C14.5523 1 15 1.44772 15 2V14C15 14.5523 14.5523 15 14 15H5V1Z" fill="white"/>
</svg>
